<?xml version="1.0" encoding="UTF-8"?>
<!DOCTYPE svg PUBLIC "-//W3C//DTD SVG 1.1//EN" "http://www.w3.org/Graphics/SVG/1.1/DTD/svg11.dtd">
<svg xmlns="http://www.w3.org/2000/svg" version="1.1" width="1007px" height="372px" style="shape-rendering:geometricPrecision; text-rendering:geometricPrecision; image-rendering:optimizeQuality; fill-rule:evenodd; clip-rule:evenodd" xmlns:xlink="http://www.w3.org/1999/xlink">
<g><path style="opacity:0.956" fill="#fefffe" d="M 468.5,60.5 C 487.746,57.4187 502.912,63.752 514,79.5C 517.455,87.3435 520.288,95.3435 522.5,103.5C 541.977,104.975 555.477,114.642 563,132.5C 568.534,156.931 560.034,174.431 537.5,185C 533.531,185.853 529.531,186.519 525.5,187C 490.129,187.929 454.796,187.262 419.5,185C 392.639,175.472 383.472,156.972 392,129.5C 397.822,117.83 406.989,110.497 419.5,107.5C 422.684,107.509 425.517,108.509 428,110.5C 428.667,114.5 428.667,118.5 428,122.5C 424,125.833 420,129.167 416,132.5C 410.457,139.304 409.457,146.638 413,154.5C 415.797,158.299 418.964,161.799 422.5,165C 455.833,165.667 489.167,165.667 522.5,165C 534.471,164.527 541.138,158.361 542.5,146.5C 542.097,138.198 538.431,131.698 531.5,127C 517.465,126.866 503.465,126.199 489.5,125C 481.058,122.952 478.225,117.785 481,109.5C 484.82,105.164 489.654,103.164 495.5,103.5C 496.61,95.8699 493.944,89.7032 487.5,85C 476.377,79.4752 466.877,81.6418 459,91.5C 457.956,93.7148 457.29,96.0481 457,98.5C 456.867,117.236 455.867,135.903 454,154.5C 447.518,158.551 441.518,157.884 436,152.5C 435.333,131.167 435.333,109.833 436,88.5C 442.467,73.8514 453.3,64.5181 468.5,60.5 Z"/></g>
<g><path style="opacity:0.879" fill="#fefffe" d="M 276.5,208.5 C 278.167,208.5 279.833,208.5 281.5,208.5C 282.48,233.49 283.48,258.49 284.5,283.5C 287.147,283.929 289.147,285.262 290.5,287.5C 289.624,288.251 288.624,288.751 287.5,289C 280.5,289.667 273.5,289.667 266.5,289C 265.376,288.751 264.376,288.251 263.5,287.5C 264.853,285.262 266.853,283.929 269.5,283.5C 270.172,260.935 270.838,238.435 271.5,216C 268.823,215.751 266.49,214.751 264.5,213C 268.353,210.879 272.353,209.379 276.5,208.5 Z"/></g>
<g><path style="opacity:0.896" fill="#fefffe" d="M 466.5,208.5 C 471.367,207.533 473.534,209.533 473,214.5C 473.5,237.498 473.667,260.498 473.5,283.5C 477.601,283.202 480.267,284.868 481.5,288.5C 475.45,289.996 469.45,289.829 463.5,288C 462.929,286.795 462.262,285.628 461.5,284.5C 445.641,294.494 433.474,291.161 425,274.5C 419.801,257.75 424.635,244.917 439.5,236C 447.128,234.169 454.795,234.003 462.5,235.5C 463.682,228.796 463.016,222.296 460.5,216C 458.975,214.991 457.308,214.491 455.5,214.5C 455.281,213.325 455.614,212.325 456.5,211.5C 459.954,210.487 463.287,209.487 466.5,208.5 Z M 448.5,238.5 C 455.635,238.314 460.135,241.648 462,248.5C 462.891,258.228 462.557,267.894 461,277.5C 451.378,286.243 443.378,284.91 437,273.5C 434.794,263.486 435.794,253.819 440,244.5C 442.671,242.098 445.505,240.098 448.5,238.5 Z"/></g>
<g><path style="opacity:0.888" fill="#fefffe" d="M 640.5,208.5 C 643.547,207.855 645.713,208.855 647,211.5C 648.046,235.486 648.88,259.486 649.5,283.5C 652.147,283.929 654.147,285.262 655.5,287.5C 654.624,288.251 653.624,288.751 652.5,289C 645.5,289.667 638.5,289.667 631.5,289C 630.376,288.751 629.376,288.251 628.5,287.5C 629.853,285.262 631.853,283.929 634.5,283.5C 635.871,260.854 636.537,238.188 636.5,215.5C 634.599,215.567 632.766,215.233 631,214.5C 629.743,214.15 629.409,213.483 630,212.5C 633.504,210.927 637.004,209.593 640.5,208.5 Z"/></g>
<g><path style="opacity:0.869" fill="#fefffe" d="M 133.5,211.5 C 142.95,211.946 144.95,216.112 139.5,224C 132.825,224.989 129.658,222.156 130,215.5C 130.69,213.65 131.856,212.316 133.5,211.5 Z"/></g>
<g><path style="opacity:0.872" fill="#fefffe" d="M 771.5,211.5 C 780.008,210.523 782.842,214.19 780,222.5C 773.709,226.347 769.875,224.68 768.5,217.5C 768.628,215.045 769.628,213.045 771.5,211.5 Z"/></g>
<g><path style="opacity:0.878" fill="#fefffe" d="M 224.5,212.5 C 232.517,212.668 240.517,213.168 248.5,214C 250.608,214.36 252.608,215.027 254.5,216C 255.639,221.416 255.806,226.916 255,232.5C 253.853,233.458 252.853,233.125 252,231.5C 247.391,219.057 238.558,214.557 225.5,218C 214.519,221.987 208.352,229.82 207,241.5C 205.417,252.573 206.751,263.239 211,273.5C 217.101,283.464 225.934,287.297 237.5,285C 240.376,284.562 243.043,283.562 245.5,282C 248.708,277.753 251.542,273.253 254,268.5C 255.011,267.663 256.178,267.33 257.5,267.5C 257.732,273.615 257.066,279.615 255.5,285.5C 242.511,290.844 229.178,291.678 215.5,288C 199.961,281.451 192.628,269.617 193.5,252.5C 192.873,230.333 203.206,216.999 224.5,212.5 Z"/></g>
<g><path style="opacity:0.885" fill="#fefffe" d="M 531.5,212.5 C 537.88,212.393 544.213,212.893 550.5,214C 554.85,215.183 557.184,218.016 557.5,222.5C 555.642,235.532 552.809,235.532 549,222.5C 541.629,216.198 533.963,215.864 526,221.5C 523.421,227.732 524.254,233.399 528.5,238.5C 535.676,242.588 543.009,246.422 550.5,250C 559.751,256.074 562.918,264.574 560,275.5C 557.945,280.888 554.445,285.054 549.5,288C 540.562,289.548 531.562,289.881 522.5,289C 518.336,288.177 515.169,286.01 513,282.5C 512.501,277.177 512.334,271.844 512.5,266.5C 513.822,266.33 514.989,266.663 516,267.5C 519.975,281.829 529.141,287.329 543.5,284C 549.832,277.986 550.999,271.152 547,263.5C 538.249,258.207 529.415,253.041 520.5,248C 509.592,236.732 510.259,226.065 522.5,216C 525.571,214.704 528.571,213.538 531.5,212.5 Z"/></g>
<g><path style="opacity:0.901" fill="#fefffe" d="M 61.5,213.5 C 73.866,213.248 86.1993,213.748 98.5,215C 106.001,217.656 110.335,222.823 111.5,230.5C 110.671,238.34 106.671,244.007 99.5,247.5C 114.356,254.566 118.19,265.566 111,280.5C 108.926,282.452 106.759,284.285 104.5,286C 88.2865,289.256 71.9532,290.09 55.5,288.5C 55.33,287.178 55.6634,286.011 56.5,285C 58.4357,284.187 60.4357,283.687 62.5,283.5C 62.833,262.156 62.4997,240.823 61.5,219.5C 53.7395,216.741 53.7395,214.741 61.5,213.5 Z M 79.5,218.5 C 97.1347,218.27 102.468,226.103 95.5,242C 88.8773,245.144 81.8773,246.311 74.5,245.5C 74.368,236.809 74.7013,228.142 75.5,219.5C 77.099,219.768 78.4324,219.434 79.5,218.5 Z M 76.5,250.5 C 81.8937,250.913 87.227,251.747 92.5,253C 98.5842,256.48 101.918,261.813 102.5,269C 101.204,278.791 95.5372,283.958 85.5,284.5C 82.1399,284.491 79.1399,283.491 76.5,281.5C 73.8628,271.128 73.8628,260.795 76.5,250.5 Z"/></g>
<g><path style="opacity:0.893" fill="#fefffe" d="M 170.5,221.5 C 172.449,225.479 173.449,229.813 173.5,234.5C 190.643,236.964 190.643,238.964 173.5,240.5C 173.054,254.24 173.554,267.907 175,281.5C 175.75,282.126 176.584,282.626 177.5,283C 181.167,283.333 184.833,283.667 188.5,284C 180.924,291.108 172.757,291.941 164,286.5C 162.016,271.248 161.182,255.914 161.5,240.5C 159.409,240.682 157.409,240.348 155.5,239.5C 154.417,238.635 154.251,237.635 155,236.5C 157.52,235.793 160.02,234.96 162.5,234C 165.053,229.72 167.719,225.554 170.5,221.5 Z"/></g>
<g><path style="opacity:0.902" fill="#fefffe" d="M 740.5,222.5 C 741.496,222.414 742.329,222.748 743,223.5C 743.333,226.833 743.667,230.167 744,233.5C 744.5,234 745,234.5 745.5,235C 749.167,235.333 752.833,235.667 756.5,236C 757.833,237 757.833,238 756.5,239C 752.107,239.017 747.94,239.85 744,241.5C 743.333,251.833 743.333,262.167 744,272.5C 744.206,275.623 744.873,278.623 746,281.5C 749.988,282.99 754.154,283.99 758.5,284.5C 752.649,289.617 745.982,291.117 738.5,289C 736.714,288.215 735.214,287.049 734,285.5C 732.864,270.514 732.031,255.514 731.5,240.5C 728.774,240.736 726.441,239.903 724.5,238C 727.231,236.058 730.231,234.558 733.5,233.5C 735.594,229.636 737.928,225.969 740.5,222.5 Z"/></g>
<g><path style="opacity:0.907" fill="#fefffe" d="M 138.5,233.5 C 139.496,233.414 140.329,233.748 141,234.5C 141.333,235.833 141.667,237.167 142,238.5C 142.5,253.83 142.667,269.163 142.5,284.5C 144.591,284.318 146.591,284.652 148.5,285.5C 149.711,286.274 149.711,287.107 148.5,288C 140.173,288.5 131.84,288.666 123.5,288.5C 123.33,287.178 123.663,286.011 124.5,285C 126.436,284.187 128.436,283.687 130.5,283.5C 130.549,269.815 130.716,256.148 131,242.5C 128.411,241.792 126.245,240.459 124.5,238.5C 124.709,237.914 125.043,237.414 125.5,237C 129.974,235.88 134.307,234.714 138.5,233.5 Z"/></g>
<g><path style="opacity:0.884" fill="#fefffe" d="M 674.5,233.5 C 676.197,235.305 677.03,237.639 677,240.5C 677.333,251.833 677.667,263.167 678,274.5C 679.285,280.32 682.952,283.32 689,283.5C 693.748,282.412 697.748,280.079 701,276.5C 701.667,265.167 701.667,253.833 701,242.5C 698.411,241.792 696.245,240.459 694.5,238.5C 699.782,235.783 705.449,234.449 711.5,234.5C 711.774,249.839 712.274,265.172 713,280.5C 713.309,281.766 713.809,282.933 714.5,284C 716.78,284.233 718.78,285.066 720.5,286.5C 719.975,287.192 719.308,287.692 718.5,288C 713.857,288.998 709.19,289.332 704.5,289C 702.888,287.605 701.388,286.105 700,284.5C 694.277,287.363 688.277,289.363 682,290.5C 674.918,290.312 670.251,286.979 668,280.5C 667.323,267.471 666.49,254.471 665.5,241.5C 663.5,241.167 661.5,240.833 659.5,240.5C 659.36,238.876 660.027,237.71 661.5,237C 665.919,235.648 670.252,234.481 674.5,233.5 Z"/></g>
<g><path style="opacity:0.893" fill="#fefffe" d="M 314.5,234.5 C 327.926,232.133 338.426,236.466 346,247.5C 347.971,257.153 347.971,266.82 346,276.5C 338.415,288.701 327.581,292.867 313.5,289C 301.298,284.29 295.632,275.29 296.5,262C 296.055,248.332 302.055,239.165 314.5,234.5 Z M 320.5,238.5 C 328.35,238.843 333.183,242.843 335,250.5C 337.453,260.871 336.453,270.871 332,280.5C 324.497,287.713 317.83,287.046 312,278.5C 307.029,266.949 307.362,255.616 313,244.5C 315.114,241.879 317.614,239.879 320.5,238.5 Z"/></g>
<g><path style="opacity:0.902" fill="#fefffe" d="M 366.5,234.5 C 368.833,234.5 371.167,234.5 373.5,234.5C 374.018,249.189 374.852,263.856 376,278.5C 383.346,284.781 390.346,284.114 397,276.5C 397.667,265.167 397.667,253.833 397,242.5C 395.556,240.845 393.722,240.178 391.5,240.5C 391.36,238.876 392.027,237.71 393.5,237C 398.136,235.933 402.802,235.1 407.5,234.5C 408.744,250.8 409.744,267.134 410.5,283.5C 412.933,284.023 414.933,285.19 416.5,287C 416.095,287.945 415.428,288.612 414.5,289C 409.833,289.667 405.167,289.667 400.5,289C 399.283,287.352 398.45,285.519 398,283.5C 392.207,287.231 385.873,289.231 379,289.5C 370.173,290.256 365.173,286.256 364,277.5C 363.667,265.833 363.333,254.167 363,242.5C 360.455,241.478 357.955,240.312 355.5,239C 356.167,238.333 356.833,237.667 357.5,237C 360.628,236.159 363.628,235.325 366.5,234.5 Z"/></g>
<g><path style="opacity:0.896" fill="#fefffe" d="M 587.5,234.5 C 613.641,232.476 624.807,244.476 621,270.5C 617.687,283.635 609.187,290.302 595.5,290.5C 578.406,288.975 570.073,279.642 570.5,262.5C 569.067,248.677 574.734,239.344 587.5,234.5 Z M 593.5,238.5 C 601.076,238.578 605.909,242.245 608,249.5C 610.924,260.596 609.924,271.263 605,281.5C 593.839,288.26 586.506,285.26 583,272.5C 582.333,265.167 582.333,257.833 583,250.5C 584.451,244.533 587.951,240.533 593.5,238.5 Z"/></g>
<g><path style="opacity:0.896" fill="#fefffe" d="M 773.5,234.5 C 775.5,234.5 777.5,234.5 779.5,234.5C 779.667,250.509 780.167,266.509 781,282.5C 783.744,283.632 786.244,285.132 788.5,287C 779.936,288.607 771.27,288.94 762.5,288C 761.289,287.107 761.289,286.274 762.5,285.5C 764.729,284.423 767.063,283.756 769.5,283.5C 769.667,269.829 769.5,256.163 769,242.5C 766.411,241.792 764.245,240.459 762.5,238.5C 765.999,236.434 769.665,235.1 773.5,234.5 Z"/></g>
<g><path style="opacity:0.892" fill="#fefffe" d="M 813.5,234.5 C 834.711,231.551 845.711,240.718 846.5,262C 846.673,279.657 838.007,289.157 820.5,290.5C 807.846,290.018 799.679,283.685 796,271.5C 792.918,258.428 796.085,247.261 805.5,238C 808.158,236.522 810.825,235.355 813.5,234.5 Z M 817.5,238.5 C 827.234,238.73 832.734,243.73 834,253.5C 834.839,260.567 834.506,267.567 833,274.5C 828.667,285.52 821.667,287.853 812,281.5C 810.107,278.382 808.774,275.049 808,271.5C 807.144,263.768 807.477,256.102 809,248.5C 810.978,244.362 813.811,241.029 817.5,238.5 Z"/></g>
<g><path style="opacity:0.883" fill="#fefffe" d="M 887.5,234.5 C 901.177,232.675 908.344,238.675 909,252.5C 909.333,262.167 909.667,271.833 910,281.5C 910.667,283.5 912,284.833 914,285.5C 914.483,286.448 914.649,287.448 914.5,288.5C 907.202,289.559 899.869,289.726 892.5,289C 891.572,288.612 890.905,287.945 890.5,287C 891.786,285.351 893.453,284.185 895.5,283.5C 897.491,272.257 897.991,260.923 897,249.5C 896.103,244.101 892.937,241.435 887.5,241.5C 882.114,242.11 877.614,244.443 874,248.5C 873.333,259.5 873.333,270.5 874,281.5C 874.374,282.416 874.874,283.25 875.5,284C 878.003,284.129 880.003,285.129 881.5,287C 880.672,287.915 879.672,288.581 878.5,289C 870.798,289.731 863.131,289.564 855.5,288.5C 855.433,285.234 857.099,283.734 860.5,284C 861.126,283.25 861.626,282.416 862,281.5C 862.667,268.833 862.667,256.167 862,243.5C 860.565,241.789 858.731,240.622 856.5,240C 855.549,239.282 855.383,238.449 856,237.5C 861.01,235.375 866.176,235.042 871.5,236.5C 872.333,238.167 873.167,239.833 874,241.5C 878.514,238.994 883.014,236.661 887.5,234.5 Z"/></g>
</svg>
