<?xml version="1.0" standalone="no"?>
<!DOCTYPE svg PUBLIC "-//W3C//DTD SVG 20010904//EN"
 "http://www.w3.org/TR/2001/REC-SVG-20010904/DTD/svg10.dtd">
<svg version="1.0" xmlns="http://www.w3.org/2000/svg"
 width="755.000000pt" height="279.000000pt" viewBox="0 0 755.000000 279.000000"
 preserveAspectRatio="xMidYMid meet">

<g transform="translate(0.000000,279.000000) scale(0.100000,-0.100000)"
fill="#000000" stroke="none">
<path d="M3446 2305 c-61 -29 -106 -73 -142 -138 l-29 -52 -3 -231 c-4 -230
-3 -232 19 -253 29 -26 89 -28 112 -3 13 14 16 53 19 234 3 201 4 219 24 245
28 38 92 73 133 73 76 0 157 -80 149 -148 -3 -24 -8 -27 -44 -30 -52 -4 -78
-30 -78 -78 0 -67 54 -84 273 -84 l107 0 41 -38 c34 -32 42 -47 48 -91 6 -46
4 -56 -19 -92 -55 -82 -39 -80 -490 -77 l-398 3 -44 48 c-39 43 -44 54 -44 96
0 59 26 102 90 146 39 28 45 37 48 72 2 33 -1 44 -20 57 -35 25 -80 20 -134
-16 -101 -68 -152 -175 -139 -291 13 -115 59 -178 175 -238 43 -23 57 -24 350
-32 420 -11 541 -6 603 23 63 30 127 93 157 155 20 40 25 65 25 130 0 94 -24
153 -86 215 -47 46 -138 90 -188 90 -51 0 -57 8 -65 70 -13 106 -90 202 -191
241 -73 28 -194 25 -259 -6z"/>
<path d="M2075 1215 c-5 -2 -27 -6 -47 -10 -44 -7 -49 -20 -13 -29 l25 -6 -2
-257 -3 -257 -24 -6 c-14 -3 -26 -11 -29 -18 -3 -9 22 -12 98 -12 76 0 101 3
98 12 -3 7 -15 15 -29 18 l-24 6 -3 282 c-2 260 -4 282 -20 281 -9 0 -21 -2
-27 -4z"/>
<path d="M3505 1215 c-5 -2 -27 -6 -47 -10 -39 -6 -53 -25 -18 -25 10 0 24 -9
30 -19 10 -20 14 -133 5 -143 -3 -3 -24 -1 -46 5 -64 16 -142 -6 -188 -52
-113 -113 -61 -335 82 -356 41 -6 56 -3 98 19 55 28 60 30 58 19 -5 -29 4 -33
66 -33 50 0 65 3 65 14 0 9 -12 16 -27 18 l-28 3 -3 283 c-2 260 -4 282 -20
281 -9 0 -21 -2 -27 -4z m-60 -239 c30 -30 39 -76 33 -183 -4 -79 -7 -88 -32
-110 -37 -32 -104 -32 -133 0 -11 12 -26 32 -33 45 -15 30 -16 140 0 186 25
78 115 112 165 62z"/>
<path d="M4781 1209 c-58 -11 -71 -25 -31 -32 l30 -7 -2 -257 -3 -257 -24 -6
c-14 -3 -26 -11 -29 -18 -3 -9 22 -12 98 -12 76 0 101 3 98 12 -3 7 -15 15
-29 18 l-24 6 -3 282 c-3 316 6 288 -81 271z"/>
<path d="M998 1189 c-29 -16 -23 -67 8 -81 33 -15 58 -1 62 38 5 43 -32 66
-70 43z"/>
<path d="M5788 1189 c-29 -16 -23 -67 8 -81 33 -15 58 -1 62 38 5 43 -32 66
-70 43z"/>
<path d="M1653 1181 c-126 -32 -197 -137 -196 -287 1 -178 86 -271 256 -282
65 -4 189 16 206 34 3 3 8 34 11 70 6 75 -7 85 -35 25 -9 -22 -31 -52 -47 -68
-27 -26 -36 -28 -103 -28 -59 0 -79 4 -102 21 -65 49 -97 127 -96 241 1 161
73 253 196 253 77 0 114 -20 138 -76 11 -24 24 -44 29 -44 6 0 10 27 10 60 0
57 -2 61 -27 72 -35 14 -197 20 -240 9z"/>
<path d="M3944 1172 c-74 -35 -108 -105 -84 -176 15 -46 53 -77 153 -124 88
-41 117 -71 117 -121 0 -76 -49 -117 -127 -108 -54 6 -96 42 -119 104 -23 61
-40 50 -35 -23 4 -70 3 -69 44 -91 45 -24 190 -25 234 -1 47 26 76 73 80 132
7 85 -39 137 -170 190 -79 33 -107 64 -107 116 0 56 38 90 100 90 59 0 95 -26
111 -81 16 -53 33 -44 37 19 3 45 0 53 -23 68 -41 27 -160 30 -211 6z"/>
<path d="M422 1168 c3 -7 15 -15 29 -18 l24 -6 0 -244 0 -245 -27 -3 c-17 -2
-28 -9 -28 -19 0 -24 310 -15 362 11 51 25 78 71 78 132 0 63 -27 107 -79 130
-23 10 -41 20 -41 23 0 3 15 13 33 22 42 20 71 78 63 123 -8 43 -48 83 -95 96
-54 15 -324 13 -319 -2z m278 -33 c37 -19 50 -43 50 -90 0 -72 -42 -105 -135
-105 l-55 0 0 89 c0 49 3 96 6 105 8 21 94 22 134 1z m15 -249 c55 -36 77
-121 46 -179 -29 -54 -141 -77 -181 -37 -17 17 -20 33 -20 123 0 57 3 107 8
111 12 13 121 -1 147 -18z"/>
<path d="M1250 1071 c-19 -42 -28 -50 -53 -53 -40 -4 -47 -26 -10 -30 l28 -3
5 -160 c3 -88 9 -168 14 -177 10 -22 69 -41 98 -33 79 22 110 53 43 42 -24 -4
-41 -1 -55 11 -19 16 -21 26 -18 167 l3 150 48 3 c62 4 58 26 -6 30 l-46 3 -3
46 c-2 26 -8 48 -14 50 -6 2 -21 -19 -34 -46z"/>
<path d="M5530 1071 c-19 -42 -28 -50 -53 -53 -40 -4 -47 -26 -10 -30 l28 -3
5 -160 c3 -88 9 -167 13 -177 12 -23 62 -41 94 -34 78 18 118 54 48 43 -24 -4
-41 -1 -55 11 -19 16 -21 28 -21 152 0 74 0 143 1 153 0 14 9 17 50 17 38 0
50 4 50 15 0 11 -12 15 -50 15 -53 0 -51 -3 -54 64 -2 46 -20 41 -46 -13z"/>
<path d="M995 1018 c-64 -12 -74 -23 -36 -36 l32 -11 -3 -158 -3 -158 -27 -3
c-17 -2 -28 -9 -28 -18 0 -12 17 -14 95 -12 53 2 96 7 98 13 1 6 -10 11 -25
13 l-28 3 0 174 c0 164 -4 206 -19 204 -3 -1 -28 -6 -56 -11z"/>
<path d="M2361 1020 c-44 -10 -81 -39 -106 -81 -29 -49 -29 -189 1 -239 74
-127 292 -113 343 23 15 40 14 162 -3 200 -33 81 -131 121 -235 97z m102 -31
c38 -17 60 -65 65 -143 7 -115 -23 -187 -85 -202 -62 -16 -107 28 -124 121
-28 151 47 268 144 224z"/>
<path d="M2740 1018 c-68 -11 -81 -22 -41 -36 l31 -11 0 -131 c0 -157 11 -193
66 -216 45 -19 91 -12 151 21 44 24 53 23 53 -7 0 -16 9 -18 66 -18 47 0 65 3
62 12 -3 7 -15 15 -29 18 l-24 6 -5 182 c-3 111 -9 182 -15 183 -5 0 -34 -2
-63 -6 -54 -7 -68 -27 -24 -33 21 -3 22 -8 22 -137 l0 -133 -31 -26 c-40 -34
-99 -36 -129 -4 -18 20 -20 35 -20 179 0 87 -3 160 -7 162 -5 2 -33 0 -63 -5z"/>
<path d="M4411 1020 c-76 -18 -121 -78 -128 -173 -7 -81 11 -143 51 -183 57
-57 163 -68 245 -25 72 37 107 169 72 273 -29 87 -132 133 -240 108z m102 -31
c46 -21 62 -65 62 -169 0 -76 -4 -101 -19 -127 -31 -51 -90 -68 -134 -37 -41
29 -56 72 -56 164 0 61 5 94 17 117 31 57 77 76 130 52z"/>
<path d="M5007 1018 c-57 -10 -73 -30 -30 -36 28 -4 33 -27 33 -170 0 -144 10
-174 65 -192 43 -14 86 -8 138 20 46 25 53 25 60 0 5 -19 12 -21 69 -18 63 3
87 20 37 26 -35 4 -39 25 -39 224 0 147 -1 159 -17 154 -10 -2 -37 -8 -60 -11
-54 -8 -62 -20 -22 -34 l31 -11 -4 -131 -3 -131 -30 -24 c-43 -34 -106 -33
-134 2 -19 24 -21 40 -21 185 0 88 -3 158 -7 158 -5 -1 -34 -6 -66 -11z"/>
<path d="M5790 1018 c-68 -10 -81 -22 -41 -36 l32 -11 -3 -158 -3 -158 -27 -3
c-17 -2 -28 -9 -28 -18 0 -12 17 -14 95 -12 55 2 95 7 95 13 1 6 -10 12 -22
14 -13 1 -26 8 -30 14 -3 6 -7 89 -8 186 0 96 -2 176 -3 176 -1 1 -27 -2 -57
-7z"/>
<path d="M6101 1020 c-82 -20 -131 -94 -131 -200 0 -113 56 -189 150 -205 136
-23 230 62 230 205 -1 155 -100 235 -249 200z m117 -45 c32 -27 52 -86 52
-155 0 -134 -81 -218 -158 -164 -41 29 -56 72 -56 164 0 61 5 94 17 117 35 66
94 81 145 38z"/>
<path d="M6615 1001 c-33 -17 -61 -31 -61 -31 -1 0 -5 11 -8 25 -7 27 -21 30
-89 19 -41 -7 -45 -25 -6 -34 24 -6 24 -7 27 -145 3 -168 0 -185 -33 -185 -16
0 -25 -6 -25 -15 0 -12 17 -15 95 -15 78 0 95 3 95 15 0 9 -9 15 -25 15 -33 0
-38 22 -33 160 l3 112 33 29 c44 40 101 41 132 2 19 -24 20 -37 18 -162 -3
-134 -3 -135 -27 -141 -14 -3 -26 -11 -29 -18 -3 -9 20 -12 87 -12 71 0 91 3
91 14 0 7 -9 16 -20 19 -19 5 -20 14 -20 136 0 89 -4 142 -14 164 -33 79 -99
95 -191 48z"/>
</g>
</svg>
